# AST/ASF file generated using VICON BodyLanguage
# -----------------------------------------------
:version 1.10
:name VICON
:units
  mass 1.0
  length 0.45
  angle deg
:documentation
   .ast/.asf automatically generated from VICON data using
   VICON BodyBuilder and BodyLanguage model FoxedUp or BRILLIANT.MOD
:root
   order TX TY TZ RX RY RZ
   axis XYZ
   position 0 0 0  
   orientation 0 0 0 
:bonedata
  begin
     id 1 
     name lhipjoint
     direction 0.700308 -0.549349 0.455834 
     length 2.59063 
     axis 0 0 0  XYZ
  end
  begin
     id 2 
     name lfemur
     direction 0.34202 -0.939693 0  
     length 6.31066  
     axis 0 0 20  XYZ
    dof rx ry rz
    limits (-160.0 20.0)
           (-70.0 70.0)
           (-60.0 70.0)
  end
  begin
     id 3 
     name ltibia
     direction 0.34202 -0.939693 0   
     length 7.36093   
     axis 0 0 20   XYZ
    dof rx
    limits (-10.0 170.0)
  end
  begin
     id 4 
     name lfoot
     direction 0.0905332 -0.248738 0.96433   
     length 2.0233   
     axis -90 7.62852e-016 20   XYZ
    dof rx rz
    limits (-45.0 90.0)
           (-70.0 20.0)
  end
  begin
     id 5 
     name ltoes
     direction 1.53573e-011 -4.21855e-011 1   
     length 1.01524   
     axis -90 7.62852e-016 20   XYZ
    dof rx
    limits (-90.0 20.0)
  end
  begin
     id 6 
     name rhipjoint
     direction -0.61416 -0.607328 0.503944   
     length 2.34332  
     axis 0 0 0  XYZ 
  end
  begin
     id 7 
     name rfemur
     direction -0.34202 -0.939693 0   
     length 6.58548   
     axis 0 0 -20   XYZ
    dof rx ry rz
    limits (-160.0 20.0)
           (-70.0 70.0)
           (-70.0 60.0)
  end
  begin
     id 8 
     name rtibia
     direction -0.34202 -0.939693 0   
     length 7.20707   
     axis 0 0 -20   XYZ
    dof rx
    limits (-10.0 170.0)
 end
 begin
     id 9 
     name rfoot
     direction -0.136772 -0.375778 0.916561   
     length 1.92184  
     axis -90 -7.62852e-016 -20   XYZ
    dof rx rz
    limits (-45.0 90.0)
           (-20.0 70.0)
  end
  begin
     id 10 
     name rtoes
     direction -1.53535e-011 -4.21828e-011 1   
     length 0.951089   
     axis -90 -7.62852e-016 -20   XYZ
    dof rx
    limits (-90.0 20.0)
  end
  begin
     id 11 
     name lowerback
     direction -0.0444974 0.988086 -0.147332   
     length 1.9609   
     axis 0 0 0   XYZ
    dof rx ry rz
    limits (-20.0 45.0)
           (-30.0 30.0)
           (-30.0 30.0)
  end
  begin
     id 12 
     name upperback
     direction 0.00613146 0.999513 0.0306081   
     length 1.94944   
     axis 0 0 0   XYZ
    dof rx ry rz
    limits (-20.0 45.0)
           (-30.0 30.0)
           (-30.0 30.0)
  end
  begin
     id 13 
     name thorax
     direction 0.0254621 0.994518 0.101418   
     length 2.0119   
     axis 0 0 0   XYZ
    dof rx ry rz
    limits (-20.0 45.0)
           (-30.0 30.0)
           (-30.0 30.0)
  end
  begin
     id 14 
     name lowerneck
     direction 0.0168698 0.977854 0.208608   
     length 1.6375   
     axis 0 0 0   XYZ
    dof rx ry rz
    limits (-20.0 45.0)
           (-30.0 30.0)
           (-30.0 30.0)
  end
  begin
     id 15 
     name upperneck
     direction -0.0283988 0.989338 -0.142843   
     length 1.6851   
     axis 0 0 0   XYZ
    dof rx ry rz
    limits (-20.0 45.0)
           (-30.0 30.0)
           (-30.0 30.0)
  end
  begin
     id 16
     name head
     direction -0.0129422 0.99741 -0.0707489  
     length 1.69029  
     axis 0 0 0   XYZ
    dof rx ry rz
    limits (-20.0 45.0)
           (-30.0 30.0)
           (-30.0 30.0)
  end
  begin
     id 17 
     name lclavicle
     direction 0.820295 0.564628 -0.0911715  
     length 3.16484  
     axis 0 0 0   XYZ
    dof ry rz
    limits (-20.0 10.0)
           (0.0 20.0)
  end
  begin
     id 18 
     name lhumerus
     direction 1 -4.48969e-011 1.00186e-027   
     length 5.17853   
     axis 180 -30 -90   XYZ
    dof rx ry rz
    limits (-60.0 90.0)
           (-90.0 90.0)
           (-90.0 90.0)
  end
  begin
     id 19
     name lradius
     direction 1 -4.48966e-011 -1.52922e-027   
     length 3.40399   
     axis 180 -30 -90   XYZ
    dof rx
    limits (-10.0 170.0)
  end
  begin
     id 20
     name lwrist
     direction 1 -4.48981e-011 -3.80893e-027   
     length 1.70199   
     axis 1.1049e-015 90 90   XYZ
    dof ry
    limits (-180.0 0.0)
 end
  begin
     id 21 
     name lhand
     direction 1 -4.48957e-011 -7.61786e-027   
     length 0.708964   
     axis 4.86085e-015 90 90   XYZ
    dof rx rz
    limits (-90.0 90.0)
           (-45.0 45.0)
  end
  begin
     id 22 
     name lfingers
     direction 1 -4.48929e-011 -1.52357e-026   
     length 0.571585   
     axis 9.7217e-015 90 90   XYZ
    dof rx
    limits (0.0 90.0)
  end
  begin
     id 23
     name lthumb
     direction 0.707107 -6.34905e-011 0.707107   
     length 0.820685   
     axis -90 45 2.85299e-015   XYZ
    dof rx rz
    limits (-45.0 45.0)
           (-45.0 45.0)
  end
  begin
     id 24 
     name rclavicle
     direction -0.858602 0.463947 -0.218075   
     length 3.35137  
     axis 0 0 0   XYZ 
    dof ry rz
    limits (-10.0 20.0)
           (-20.0 0.0)
  end
  begin
     id 25 
     name rhumerus
     direction -1 -4.48969e-011 -1.98511e-027  
     length 5.42351   
     axis 180 30 90   XYZ
    dof rx ry rz
    limits (-90.0 60.0)
           (-90.0 90.0)
           (-90.0 90.0)
  end
  begin
     id 26 
     name rradius
     direction -1 -4.48961e-011 -2.82624e-027   
     length 3.42066   
     axis 180 30 90   XYZ
    dof rx
    limits (-10.0 170.0)
  end
  begin
     id 27 
     name rwrist
     direction -1 -4.48966e-011 -3.80893e-027   
     length 1.71033   
     axis 1.1049e-015 -90 -90   XYZ
    dof ry
    limits (-180.0 0.0)
  end
  begin
     id 28
     name rhand
     direction -1 -4.48964e-011 -7.61786e-027   
     length 0.743608   
     axis 4.86085e-015 -90 -90   XYZ
    dof rx rz
    limits (-90.0 90.0)
           (-45.0 45.0)
  end
  begin
     id 29
     name rfingers
     direction -1 -4.48961e-011 -1.52357e-026   
     length 0.599516   
     axis 9.7217e-015 -90 -90   XYZ
    dof rx
    limits (0.0 90.0)
  end
  begin
     id 30
     name rthumb
     direction -0.707107 -6.34913e-011 0.707107   
     length 0.860789   
     axis -90 -45 -2.85299e-015   XYZ
    dof rx rz
    limits (-45.0 45.0)
           (-45.0 45.0)
  end
:hierarchy
  begin
    root lhipjoint rhipjoint lowerback
    lhipjoint lfemur
    lfemur ltibia
    ltibia lfoot
    lfoot ltoes
    rhipjoint rfemur
    rfemur rtibia
    rtibia rfoot
    rfoot rtoes
    lowerback upperback
    upperback thorax
    thorax lowerneck lclavicle rclavicle
    lowerneck upperneck
    upperneck head
    lclavicle lhumerus
    lhumerus lradius
    lradius lwrist
    lwrist lhand lthumb
    lhand lfingers
    rclavicle rhumerus
    rhumerus rradius
    rradius rwrist
    rwrist rhand rthumb
    rhand rfingers
  end

#!OML:ASF E:\mmandel\Project 1\Capture day 1\Session 2\Subject.ASF
:FULLY-SPECIFIED
:DEGREES
128
root -2.14685 2.29526 -5.43202 -27.5509 21.8436 83.0376
lowerback 18.4097 -1.96789 -6.56115
upperback 3.92211 -4.14257 -3.39959
thorax -5.85656 -1.96256 1.02363
lowerneck -18.9214 1.49361 9.32416
upperneck 25.1371 -5.22389 14.1926
head 11.8657 0.450054 2.96234
rclavicle -5.08889e-014 -7.95139e-015
rhumerus 76.7488 -12.801 -71.3838
rradius 20.6739
rwrist -44.611
rhand -17.255 23.6336
rfingers 7.12502
rthumb 8.98927 -6.15484
lclavicle -5.08889e-014 -7.95139e-015
lhumerus 50.062 -54.3241 73.5834
lradius 61.5206
lwrist 22.7996
lhand -23.6557 -47.3296
lfingers 7.12502
lthumb 2.80987 -17.3683
rfemur -50.8202 -0.853245 1.33556
rtibia 40.7298
rfoot -4.40193 -22.8609
rtoes 2.31888
lfemur -14.1961 21.4269 -21.6232
ltibia 78.7343
lfoot 18.2987 -11.7165
ltoes -24.0106
129
root -2.13776 2.28276 -5.44151 -27.3061 22.2522 83.4013
lowerback 18.3666 -1.65918 -7.26329
upperback 3.86916 -3.85804 -3.3149
thorax -5.85228 -1.80995 1.44111
lowerneck -19.1717 1.38159 9.08906
upperneck 25.2956 -5.35998 14.1661
head 11.9829 0.391029 2.98065
rclavicle 8.90555e-014 -3.18055e-014
rhumerus 76.7979 -13.3811 -71.5628
rradius 20.37
rwrist -43.5384
rhand -17.1042 23.6743
rfingers 7.12502
rthumb 9.1348 -6.1079
lclavicle 8.90555e-014 -3.18055e-014
lhumerus 50.3682 -54.5778 73.3721
lradius 61.7324
lwrist 23.1404
lhand -23.0895 -47.2424
lfingers 7.12502
lthumb 3.35666 -17.289
rfemur -50.9392 -1.03016 0.734054
rtibia 40.7106
rfoot -4.4646 -22.9795
rtoes 2.5716
lfemur -14.4062 21.6439 -22.0177
ltibia 78.7827
lfoot 18.2485 -12.3195
ltoes -25.7985
130
root -2.13309 2.27272 -5.44992 -27.2959 22.4693 83.2955
lowerback 18.0997 -1.52125 -6.95882
upperback 4.03941 -3.59753 -3.60937
thorax -5.58376 -1.69948 0.885986
lowerneck -19.4545 1.35782 9.52823
upperneck 25.1914 -5.58675 14.2644
head 12.0168 0.354054 2.91336
rclavicle -7.15625e-014 3.81667e-014
rhumerus 77.0073 -14.4271 -72.76
rradius 19.9706
rwrist -42.1808
rhand -16.5944 23.874
rfingers 7.12502
rthumb 9.62672 -5.88605
lclavicle -7.15625e-014 3.81667e-014
lhumerus 51.1823 -55.1167 72.0434
lradius 61.9255
lwrist 23.28
lhand -22.854 -47.5064
lfingers 7.12502
lthumb 3.58414 -17.5568
rfemur -50.9088 -1.16028 0.648599
rtibia 40.668
rfoot -4.5341 -23.1055
rtoes 2.60398
lfemur -14.464 21.859 -21.806
ltibia 78.8065
lfoot 18.5877 -12.3248
ltoes -24.7261
131
root -2.13283 2.26786 -5.45742 -27.5324 22.5953 82.9284
lowerback 18.052 -1.4261 -6.61214
upperback 4.12176 -3.39447 -3.63538
thorax -5.50435 -1.60667 0.61764
lowerneck -19.5318 1.33878 9.77221
upperneck 25.134 -5.69354 14.2766
head 12.0154 0.334341 2.86162
rclavicle 9.85972e-014 -3.65764e-014
rhumerus 76.9958 -15.0862 -73.3574
rradius 19.6964
rwrist -41.0815
rhand -16.0492 24.1818
rfingers 7.12502
rthumb 10.1527 -5.55326
lclavicle 9.85972e-014 -3.65764e-014
lhumerus 51.473 -55.4227 71.3847
lradius 62.0048
lwrist 23.1971
lhand -22.9165 -47.8456
lfingers 7.12502
lthumb 3.52373 -17.895
rfemur -50.6472 -1.28511 0.855929
rtibia 40.5976
rfoot -4.59386 -23.1608
rtoes 2.5397
lfemur -14.2746 22.0888 -21.2078
ltibia 78.8149
lfoot 18.9527 -12.437
ltoes -23.4198
132
root -2.13203 2.26216 -5.46789 -27.6241 22.8036 82.7753
lowerback 18.0375 -1.37434 -6.66938
upperback 4.07332 -3.3265 -3.48703
thorax -5.53936 -1.56956 0.793268
lowerneck -19.3254 1.36276 9.66169
upperneck 25.1172 -5.51729 14.071
head 11.9455 0.365069 2.82338
rclavicle 6.36111e-015 -3.81667e-014
rhumerus 77.2677 -15.1577 -73.9222
rradius 19.2064
rwrist -39.6711
rhand -15.8863 24.1707
rfingers 7.12502
rthumb 10.3099 -5.55657
lclavicle 6.36111e-015 -3.81667e-014
lhumerus 51.2755 -55.3258 71.2969
lradius 62.1266
lwrist 23.0734
lhand -22.8433 -47.9109
lfingers 7.12502
lthumb 3.59439 -17.9614
rfemur -50.4981 -1.4287 0.826832
rtibia 40.5155
rfoot -4.45785 -23.2444
rtoes 1.9896
lfemur -14.2253 22.2928 -20.9225
ltibia 78.8636
lfoot 18.9473 -12.9456
ltoes -24.2555
